<?xml version="1.0" encoding="utf-8"?>
<!-- Generator: Adobe Illustrator 16.0.0, SVG Export Plug-In . SVG Version: 6.00 Build 0)  -->
<!DOCTYPE svg PUBLIC "-//W3C//DTD SVG 1.1//EN" "http://www.w3.org/Graphics/SVG/1.1/DTD/svg11.dtd">
<svg version="1.1" xmlns="http://www.w3.org/2000/svg" xmlns:xlink="http://www.w3.org/1999/xlink" x="0px" y="0px"
	 width="85.166px" height="36.168px" viewBox="0 0 85.166 36.168" enable-background="new 0 0 85.166 36.168" xml:space="preserve">
<g id="Layer_3_copy">
</g>
<g id="Layer_2">
	<g>
		<path d="M78.521,10.367c-0.017-0.097-0.046-0.188-0.09-0.272c-0.536-2.968-3.146-5.17-6.193-5.17c-0.207,0-0.415,0.01-0.62,0.031
			C70.676,2.588,68.383,1,65.771,1c-1.887,0-3.621,0.823-4.799,2.218C59.793,1.823,58.059,1,56.172,1
			c-2.609,0-4.901,1.588-5.844,3.954c-0.2-0.02-0.4-0.029-0.598-0.029c-3.186,0-5.826,2.377-6.239,5.45
			c-2.001,0.314-3.68,1.593-4.591,3.327c-1.253-2.219-3.613-3.656-6.271-3.656c-2.16,0-4.148,0.942-5.498,2.541
			c-1.35-1.599-3.338-2.541-5.5-2.541c-2.989,0-5.615,1.818-6.696,4.529c-0.229-0.022-0.457-0.033-0.685-0.033
			c-3.65,0-6.675,2.725-7.148,6.245C3.657,21.327,1,24.335,1,27.911c0,3.977,3.236,7.213,7.213,7.213h37.959
			c3.975,0,7.211-3.236,7.211-7.213c0.001-1.953-0.783-3.723-2.049-5.023H77.59c3.47,0,6.294-2.824,6.294-6.295
			C83.885,13.439,81.553,10.818,78.521,10.367z M80.458,19.933c-0.027-0.291-0.08-0.609-0.173-0.953
			c-0.004-0.011-0.004-0.02-0.008-0.029c0-0.004-0.004-0.007-0.004-0.01c-0.123-0.438-0.306-0.91-0.587-1.411
			c-0.127-0.228-0.415-0.308-0.642-0.181c-0.228,0.129-0.309,0.416-0.181,0.643c0.143,0.254,0.255,0.498,0.346,0.732
			c-0.417,0.02-1.059-0.061-1.702-0.568c-0.204-0.161-0.501-0.127-0.662,0.078c-0.162,0.205-0.127,0.502,0.078,0.662
			c0.792,0.625,1.594,0.773,2.178,0.773c0.136,0,0.259-0.008,0.369-0.02c0.062,0.343,0.072,0.644,0.062,0.891
			c-0.587,0.291-1.245,0.457-1.943,0.457h-8.173c-0.946-1.986,0.356-3.512,0.583-3.757c0.621-0.423,1.105-0.886,1.444-1.257
			c0.186,0.881,0.019,1.605,0.005,1.662c-0.062,0.254,0.093,0.509,0.345,0.572c0.037,0.011,0.077,0.014,0.114,0.014
			c0.211,0,0.404-0.143,0.458-0.357c0.006-0.021,0.352-1.482-0.295-2.986c-0.012-0.045-0.031-0.088-0.056-0.127
			c-0.314-0.667-0.825-1.334-1.658-1.881c-0.219-0.145-0.511-0.083-0.654,0.136c-0.145,0.218-0.082,0.511,0.136,0.654
			c0.584,0.384,0.973,0.839,1.229,1.301c-0.417,0.523-1.628,1.869-3.409,2.332c-0.254,0.066-0.405,0.323-0.339,0.576
			c0.055,0.213,0.246,0.354,0.457,0.354c0.04,0,0.08-0.005,0.119-0.016c0.184-0.047,0.359-0.105,0.532-0.166
			c-0.3,0.774-0.457,1.797-0.033,2.947h-1.909c-0.312-1.016-1.193-2.623-3.679-3.672c-0.241-0.102-0.518,0.01-0.619,0.251
			c-0.103,0.241,0.011,0.519,0.252,0.619c0.275,0.116,0.528,0.241,0.761,0.37c-0.347,0.221-0.853,0.476-1.471,0.582
			c-0.233-0.274-0.661-0.876-0.604-1.551c0.052-0.602,0.482-1.168,1.282-1.682c0.219-0.142,0.28-0.434,0.141-0.653
			c-0.141-0.218-0.435-0.282-0.654-0.142c-1.057,0.682-1.632,1.488-1.709,2.395c-0.056,0.639,0.152,1.204,0.397,1.637
			c-0.401-0.068-0.825-0.211-1.267-0.463c-0.227-0.129-0.516-0.051-0.644,0.175c-0.129,0.228-0.051,0.516,0.176,0.644
			c0.812,0.467,1.585,0.637,2.28,0.637c0.139,0,0.274-0.008,0.406-0.021c0.007,0,0.012,0.002,0.019,0.002
			c0.043,0,0.085-0.008,0.126-0.02c1.087-0.139,1.932-0.659,2.361-0.98c0.814,0.643,1.231,1.335,1.446,1.875h-7.97
			c-0.407-1.01-1.559-2.625-4.8-3.855c-0.243-0.092-0.517,0.029-0.609,0.274c-0.092,0.243,0.031,0.517,0.274,0.608
			c0.34,0.129,0.651,0.263,0.941,0.397c-0.559,0.29-1.132,0.798-1.242,1.678c-0.032,0.259,0.151,0.495,0.41,0.527
			c0.02,0.003,0.038,0.003,0.059,0.003c0.235,0,0.438-0.174,0.468-0.413c0.104-0.825,1.044-1.112,1.416-1.196
			c1.134,0.709,1.726,1.429,2.032,1.977h-8.257c-0.316-0.093-0.639-0.172-0.971-0.222c-0.02-0.11-0.055-0.216-0.104-0.312
			c-0.07-0.388-0.175-0.763-0.305-1.125c0.058-0.131,0.113-0.262,0.192-0.387c0.445-0.699,1.196-1.154,2.233-1.358
			c0.258-0.051,0.424-0.298,0.373-0.554c-0.051-0.258-0.297-0.424-0.554-0.373c-0.116,0.022-0.229,0.051-0.339,0.079
			c0.352-0.704,0.641-1.678,0.42-2.777c-0.051-0.255-0.299-0.422-0.555-0.372s-0.422,0.3-0.37,0.557
			c0.339,1.693-0.946,3.089-0.964,3.105c-0.054,0.059-0.09,0.13-0.109,0.203c-0.316,0.229-0.579,0.509-0.805,0.82
			c-1.154-2.092-3.31-3.535-5.779-3.719c0.727-1.376,2.144-2.342,3.794-2.375c0.288,0.687,0.89,1.771,1.903,2.088
			c0.047,0.014,0.096,0.021,0.141,0.021c0.201,0,0.388-0.129,0.451-0.332c0.078-0.25-0.061-0.515-0.311-0.592
			c-0.664-0.208-1.133-1.081-1.36-1.662c0.08-0.139,0.129-0.298,0.129-0.47v-0.025c0-2.222,1.653-4.06,3.795-4.359
			c0.5,1.113,1.337,3.379,1.23,5.926c-0.011,0.26,0.191,0.48,0.452,0.491c0.007,0,0.014,0.001,0.02,0.001
			c0.253,0,0.462-0.199,0.473-0.453c0.058-1.381-0.135-2.671-0.41-3.766c0.761-0.112,2.059-0.498,3.03-1.795
			c0.157-0.208,0.115-0.504-0.094-0.661c-0.209-0.156-0.504-0.114-0.661,0.094c-0.839,1.119-1.979,1.383-2.535,1.444
			c-0.16-0.501-0.327-0.942-0.482-1.309c0.207,0.02,0.413,0.052,0.616,0.101c0.505,0.12,1.013-0.19,1.137-0.693
			c0.34-1.385,1.309-2.474,2.557-3.001c0.359,0.097,0.755,0.268,1.047,0.572c0.331,0.346,0.476,0.808,0.439,1.411
			c-0.015,0.26,0.183,0.483,0.444,0.498c0.009,0.001,0.019,0.001,0.027,0.001c0.249,0,0.456-0.194,0.471-0.444
			c0.052-0.87-0.186-1.585-0.706-2.125c-0.09-0.094-0.186-0.175-0.286-0.252c0.094-0.005,0.189-0.012,0.285-0.012
			c1.613,0,3.065,0.86,3.845,2.259c0.097,0.654,0.588,1.619,2.03,2.034C62.09,7.193,62.135,7.2,62.179,7.2
			c0.204,0,0.394-0.135,0.454-0.342c0.07-0.25-0.072-0.512-0.324-0.584c-0.436-0.125-0.731-0.304-0.934-0.491
			c0.189-0.089,0.347-0.24,0.443-0.436c0.748-1.517,2.266-2.459,3.954-2.459c1.282,0,2.454,0.548,3.269,1.447
			c-0.169,0.152-0.334,0.351-0.462,0.616c-0.357,0.741-0.284,1.698,0.218,2.849c0.077,0.177,0.251,0.283,0.434,0.283
			c0.063,0,0.126-0.013,0.189-0.04c0.239-0.104,0.347-0.383,0.243-0.622c-0.379-0.865-0.462-1.571-0.239-2.044
			c0.049-0.106,0.111-0.194,0.176-0.265c0.198,0.349,0.354,0.728,0.454,1.134c0.123,0.506,0.632,0.817,1.141,0.694
			c0.344-0.083,0.696-0.127,1.047-0.127c0.919,0,1.777,0.289,2.491,0.779c-0.01,0.205-0.042,0.437-0.1,0.68
			c-0.305,0.06-1.072,0.066-2.355-0.848c-0.213-0.152-0.507-0.103-0.658,0.109c-0.152,0.212-0.102,0.507,0.11,0.659
			c1.065,0.761,1.892,1.004,2.478,1.043c-0.127,0.188-0.28,0.369-0.478,0.533c-0.197,0.169-0.222,0.466-0.055,0.666
			c0.094,0.11,0.227,0.167,0.361,0.167c0.108,0,0.217-0.037,0.305-0.111c0.59-0.5,0.925-1.096,1.115-1.668
			c0.014-0.031,0.024-0.063,0.031-0.097c0.037-0.124,0.07-0.247,0.095-0.367c0.541,0.631,0.912,1.414,1.025,2.287
			c0.01,0.059,0.021,0.117,0.041,0.171v0.426c0,0.521,0.422,0.944,0.943,0.944c0.038,0,0.074,0.005,0.112,0.006
			c-0.952,0.919-1.724,1.972-2.238,2.765c-0.043-0.208-0.093-0.419-0.147-0.639c-0.065-0.253-0.322-0.403-0.576-0.338
			c-0.254,0.066-0.404,0.324-0.337,0.577c0.412,1.59,0.368,2.86-0.129,3.676c-0.415,0.689-1.015,0.838-1.049,0.845
			c-0.253,0.054-0.415,0.302-0.363,0.558c0.047,0.223,0.242,0.376,0.463,0.376c0.03,0,0.063-0.003,0.095-0.011
			c0.039-0.008,1.001-0.216,1.644-1.246c0.377-0.606,0.564-1.356,0.564-2.244c0.268-0.484,1.529-2.678,3.272-4.125
			c1.79,0.56,3.095,2.234,3.095,4.208C81.996,17.929,81.396,19.124,80.458,19.933z"/>
		<path d="M68.997,9.657c-0.003,0-0.007,0-0.011,0c-0.488,0.011-0.924,0.08-1.311,0.191c0.062-0.782-0.022-1.953-0.792-3.027
			c-0.004-0.334,0.038-1.283,0.554-1.929c0.163-0.204,0.13-0.501-0.074-0.664c-0.202-0.163-0.499-0.13-0.663,0.074
			c-0.4,0.503-0.592,1.103-0.683,1.611c-0.191-0.152-0.399-0.3-0.633-0.44C65.16,5.34,64.87,5.415,64.736,5.638
			c-0.132,0.224-0.059,0.515,0.164,0.647c2.202,1.309,1.905,3.403,1.764,4.009c-1.765,1.097-1.989,3.224-1.991,3.253
			c-0.024,0.258,0.166,0.488,0.424,0.513c0.016,0.001,0.03,0.002,0.046,0.002c0.239,0,0.445-0.182,0.47-0.426
			c0.012-0.121,0.331-2.968,3.396-3.035c0.261-0.006,0.468-0.223,0.461-0.483C69.463,9.861,69.253,9.657,68.997,9.657z"/>
		<path d="M56.438,11.625c-0.26-0.014-0.482,0.187-0.496,0.447c-0.041,0.829-0.226,0.97-0.222,0.97
			c-0.154,0.021-0.647-0.361-1.032-0.854c-0.588-1.707-1.837-2.432-1.905-2.471c-0.229-0.127-0.516-0.045-0.644,0.182
			c-0.127,0.227-0.046,0.515,0.183,0.643c0.017,0.01,1.726,0.996,1.726,3.522c0,0.261,0.211,0.472,0.473,0.472
			c0.26,0,0.471-0.211,0.471-0.472c0-0.11-0.008-0.212-0.013-0.316c0.233,0.142,0.486,0.24,0.74,0.24
			c0.092,0,0.183-0.012,0.274-0.041c0.812-0.247,0.872-1.434,0.893-1.825C56.897,11.86,56.697,11.638,56.438,11.625z"/>
		<path d="M62.685,10.776c-0.644-0.084-1.065-0.974-1.181-1.326l-0.007-1.605c-0.001-0.261-0.213-0.47-0.473-0.47h-0.002
			c-0.261,0-0.471,0.213-0.471,0.473l0.023,5.431c0.003,0.26,0.214,0.47,0.475,0.47c0,0,0,0,0.001,0
			c0.261-0.001,0.472-0.214,0.47-0.475l-0.009-2.076c0.276,0.256,0.623,0.459,1.05,0.515c0.019,0.002,0.041,0.003,0.061,0.003
			c0.233,0,0.438-0.173,0.469-0.412C63.127,11.047,62.944,10.811,62.685,10.776z"/>
	</g>
</g>
<g id="Layer_3">
	<path fill="#FFFFFF" d="M47.24,20.777c-0.02-0.11-0.055-0.216-0.104-0.312c-0.615-3.4-3.604-5.924-7.096-5.924
		c-0.238,0-0.477,0.012-0.713,0.035c-1.08-2.712-3.705-4.531-6.699-4.531c-2.16,0-4.148,0.942-5.498,2.541
		c-1.35-1.599-3.338-2.541-5.5-2.541c-2.989,0-5.615,1.818-6.696,4.529c-0.229-0.022-0.457-0.033-0.685-0.033
		c-3.65,0-6.675,2.725-7.148,6.245C3.657,21.327,1,24.335,1,27.911c0,3.977,3.236,7.213,7.213,7.213h37.959
		c3.975,0,7.211-3.236,7.211-7.213C53.385,24.298,50.713,21.294,47.24,20.777z"/>
</g>
<g id="Layer_1">
	<g>
		<path d="M47.24,20.777c-0.02-0.11-0.055-0.215-0.104-0.312c-0.615-3.4-3.604-5.924-7.096-5.924c-0.238,0-0.477,0.012-0.713,0.035
			c-1.08-2.712-3.705-4.531-6.699-4.531c-2.16,0-4.148,0.942-5.498,2.541c-1.35-1.599-3.338-2.541-5.5-2.541
			c-2.99,0-5.616,1.818-6.697,4.529c-0.229-0.022-0.457-0.033-0.685-0.033c-3.649,0-6.675,2.725-7.148,6.245
			C3.657,21.328,1,24.336,1,27.912c0,3.977,3.236,7.212,7.213,7.212h37.958c3.975,0,7.211-3.235,7.211-7.212
			C53.385,24.298,50.713,21.295,47.24,20.777z M49.457,31.738c-0.029-0.333-0.092-0.699-0.197-1.093
			c-0.004-0.012-0.004-0.022-0.01-0.033c0-0.004-0.002-0.007-0.004-0.011c-0.141-0.501-0.35-1.044-0.672-1.617
			c-0.146-0.26-0.477-0.354-0.736-0.207c-0.26,0.147-0.354,0.477-0.207,0.736c0.164,0.291,0.293,0.571,0.398,0.84
			c-0.479,0.022-1.213-0.069-1.951-0.652c-0.234-0.184-0.574-0.146-0.76,0.09c-0.184,0.235-0.145,0.574,0.09,0.76
			c0.908,0.715,1.826,0.886,2.496,0.886c0.156,0,0.297-0.01,0.424-0.023c0.068,0.394,0.082,0.738,0.07,1.021
			c-0.672,0.332-1.428,0.524-2.227,0.524h-9.365c-1.084-2.277,0.408-4.025,0.67-4.306c0.711-0.485,1.266-1.015,1.654-1.439
			c0.213,1.01,0.021,1.839,0.006,1.904c-0.072,0.291,0.105,0.583,0.395,0.655c0.043,0.012,0.088,0.016,0.131,0.016
			c0.242,0,0.463-0.164,0.525-0.409c0.006-0.024,0.402-1.699-0.338-3.422c-0.016-0.052-0.037-0.102-0.066-0.146
			c-0.357-0.765-0.943-1.529-1.898-2.155c-0.25-0.166-0.586-0.095-0.75,0.154c-0.164,0.25-0.094,0.586,0.156,0.75
			c0.668,0.439,1.113,0.961,1.408,1.49c-0.477,0.6-1.865,2.142-3.906,2.672c-0.291,0.076-0.465,0.371-0.389,0.66
			c0.062,0.245,0.283,0.405,0.523,0.405c0.047,0,0.092-0.006,0.137-0.018c0.211-0.055,0.412-0.12,0.611-0.191
			c-0.346,0.889-0.525,2.06-0.039,3.379h-2.188c-0.357-1.164-1.367-3.007-4.214-4.209c-0.275-0.116-0.594,0.013-0.709,0.288
			c-0.117,0.276,0.012,0.594,0.287,0.71c0.316,0.134,0.605,0.275,0.873,0.424c-0.396,0.252-0.976,0.545-1.686,0.666
			c-0.267-0.313-0.758-1.003-0.691-1.776c0.06-0.688,0.553-1.338,1.469-1.928c0.251-0.161,0.323-0.496,0.162-0.747
			c-0.162-0.251-0.497-0.324-0.749-0.162c-1.211,0.781-1.87,1.705-1.96,2.744c-0.063,0.731,0.175,1.379,0.456,1.874
			c-0.459-0.078-0.945-0.242-1.451-0.529c-0.258-0.148-0.59-0.059-0.737,0.2c-0.148,0.26-0.058,0.59,0.201,0.737
			c0.933,0.533,1.817,0.729,2.614,0.729c0.158,0,0.313-0.01,0.465-0.024c0.008,0,0.014,0.002,0.021,0.002
			c0.049,0,0.098-0.009,0.145-0.021c1.246-0.16,2.212-0.756,2.705-1.124c0.934,0.737,1.412,1.53,1.658,2.148h-9.132
			c-0.467-1.156-1.786-3.008-5.5-4.418c-0.279-0.105-0.592,0.035-0.697,0.314s0.034,0.593,0.313,0.698
			c0.39,0.147,0.747,0.3,1.079,0.455c-0.641,0.333-1.298,0.914-1.424,1.922c-0.037,0.297,0.174,0.567,0.471,0.604
			c0.021,0.003,0.045,0.004,0.066,0.004c0.27,0,0.502-0.2,0.537-0.474c0.117-0.946,1.195-1.275,1.623-1.37
			c1.298,0.811,1.975,1.636,2.327,2.264H10.592c-0.021-0.665,0.067-1.57,0.559-2.343c0.51-0.801,1.371-1.323,2.559-1.557
			c0.294-0.058,0.484-0.342,0.428-0.635c-0.059-0.294-0.342-0.485-0.635-0.428c-0.134,0.026-0.262,0.059-0.389,0.092
			c0.401-0.807,0.734-1.923,0.482-3.183c-0.059-0.292-0.344-0.483-0.637-0.425c-0.293,0.058-0.483,0.343-0.425,0.637
			c0.388,1.94-1.085,3.54-1.103,3.559c-0.063,0.067-0.104,0.149-0.127,0.232c-0.43,0.313-0.791,0.688-1.072,1.134
			c-0.625,0.988-0.746,2.096-0.725,2.916H8.213c-2.04,0-3.797-1.218-4.593-2.963c0.378-0.785,1.23-1.907,3.124-2.446
			c0.287-0.082,0.453-0.382,0.372-0.668c-0.081-0.288-0.381-0.454-0.669-0.372c-1.62,0.461-2.618,1.285-3.231,2.084
			c-0.031-0.224-0.052-0.451-0.052-0.683c0-2.732,2.215-4.988,4.943-5.045c0.33,0.787,1.02,2.029,2.182,2.392
			c0.055,0.017,0.108,0.025,0.162,0.025c0.23,0,0.443-0.148,0.516-0.38c0.09-0.286-0.069-0.59-0.355-0.679
			c-0.76-0.237-1.299-1.238-1.56-1.904c0.093-0.159,0.148-0.342,0.148-0.539v-0.028c0-2.546,1.896-4.651,4.349-4.994
			c0.572,1.274,1.531,3.871,1.41,6.79c-0.012,0.298,0.219,0.55,0.518,0.562c0.008,0,0.016,0.001,0.023,0.001
			c0.289,0,0.527-0.228,0.54-0.52c0.066-1.582-0.155-3.06-0.47-4.314c0.871-0.129,2.358-0.57,3.473-2.057
			c0.18-0.238,0.131-0.578-0.107-0.758c-0.238-0.179-0.578-0.131-0.758,0.108c-0.961,1.282-2.268,1.585-2.904,1.655
			c-0.184-0.575-0.376-1.08-0.553-1.5c0.236,0.022,0.473,0.06,0.705,0.115c0.579,0.139,1.16-0.217,1.303-0.794
			c0.389-1.587,1.499-2.834,2.93-3.439c0.411,0.111,0.864,0.308,1.198,0.655c0.38,0.396,0.546,0.926,0.505,1.617
			c-0.018,0.298,0.209,0.554,0.508,0.571c0.012,0.001,0.021,0.001,0.033,0.001c0.284,0,0.521-0.222,0.539-0.509
			c0.059-0.997-0.214-1.816-0.81-2.435c-0.103-0.107-0.214-0.201-0.327-0.289c0.107-0.007,0.217-0.014,0.326-0.014
			c1.848,0,3.512,0.985,4.406,2.588c0.109,0.749,0.674,1.855,2.324,2.33c0.051,0.015,0.102,0.021,0.152,0.021
			c0.234,0,0.451-0.154,0.52-0.392c0.082-0.286-0.083-0.586-0.371-0.669c-0.5-0.144-0.838-0.348-1.07-0.562
			c0.217-0.103,0.398-0.275,0.51-0.499c0.857-1.738,2.595-2.817,4.529-2.817c1.471,0,2.812,0.628,3.744,1.657
			c-0.191,0.174-0.383,0.402-0.527,0.706c-0.41,0.849-0.326,1.945,0.248,3.264c0.09,0.203,0.289,0.323,0.498,0.323
			c0.072,0,0.145-0.015,0.217-0.045c0.273-0.12,0.396-0.439,0.277-0.713c-0.434-0.99-0.527-1.8-0.273-2.342
			c0.057-0.122,0.129-0.223,0.201-0.305c0.229,0.4,0.406,0.835,0.52,1.3c0.143,0.58,0.725,0.936,1.309,0.795
			c0.393-0.096,0.799-0.145,1.199-0.145c1.053,0,2.037,0.33,2.854,0.893c-0.012,0.234-0.047,0.5-0.113,0.778
			c-0.348,0.069-1.229,0.077-2.699-0.972c-0.242-0.175-0.58-0.117-0.754,0.125c-0.174,0.243-0.117,0.581,0.127,0.755
			c1.221,0.872,2.168,1.151,2.84,1.196c-0.146,0.215-0.322,0.422-0.547,0.61c-0.227,0.193-0.256,0.534-0.064,0.763
			c0.107,0.127,0.26,0.191,0.414,0.191c0.125,0,0.248-0.042,0.35-0.128c0.676-0.572,1.059-1.256,1.277-1.911
			c0.016-0.035,0.029-0.073,0.035-0.11c0.043-0.142,0.082-0.283,0.109-0.421c0.619,0.723,1.045,1.621,1.176,2.62
			c0.01,0.067,0.023,0.134,0.045,0.197v0.488c0,0.597,0.484,1.082,1.082,1.082c0.043,0,0.086,0.005,0.129,0.006
			c-1.092,1.054-1.975,2.26-2.564,3.168c-0.049-0.238-0.105-0.48-0.17-0.731c-0.074-0.29-0.369-0.463-0.66-0.388
			c-0.289,0.075-0.463,0.371-0.387,0.66c0.473,1.821,0.422,3.278-0.146,4.213c-0.477,0.788-1.162,0.958-1.201,0.967
			c-0.289,0.062-0.477,0.347-0.416,0.639c0.053,0.255,0.277,0.431,0.529,0.431c0.035,0,0.072-0.003,0.109-0.012
			c0.045-0.01,1.146-0.247,1.883-1.429c0.432-0.694,0.646-1.554,0.646-2.57c0.307-0.556,1.752-3.068,3.75-4.726
			c2.051,0.641,3.547,2.56,3.547,4.82C51.221,29.441,50.533,30.812,49.457,31.738z"/>
		<path d="M36.326,19.964c-0.004,0-0.008,0-0.012,0c-0.561,0.013-1.061,0.091-1.502,0.22c0.07-0.896-0.025-2.237-0.908-3.469
			c-0.004-0.383,0.043-1.47,0.635-2.211c0.188-0.233,0.148-0.573-0.084-0.76s-0.572-0.148-0.76,0.085
			c-0.459,0.576-0.68,1.264-0.783,1.846c-0.219-0.175-0.457-0.344-0.727-0.504c-0.256-0.152-0.588-0.067-0.74,0.188
			c-0.152,0.257-0.068,0.59,0.188,0.742c2.523,1.499,2.182,3.898,2.021,4.593c-2.023,1.257-2.281,3.694-2.283,3.728
			c-0.027,0.296,0.191,0.56,0.486,0.588c0.018,0.001,0.035,0.003,0.053,0.003c0.273,0,0.51-0.209,0.537-0.489
			c0.014-0.139,0.379-3.4,3.893-3.478c0.299-0.007,0.535-0.255,0.527-0.553C36.859,20.198,36.619,19.964,36.326,19.964z"/>
		<path d="M21.935,22.22c-0.298-0.017-0.553,0.214-0.567,0.513c-0.049,0.949-0.258,1.11-0.255,1.11
			c-0.175,0.024-0.741-0.414-1.183-0.979c-0.674-1.956-2.104-2.787-2.184-2.831c-0.26-0.146-0.59-0.053-0.736,0.208
			s-0.053,0.591,0.208,0.736c0.021,0.012,1.978,1.142,1.978,4.036c0,0.299,0.242,0.542,0.541,0.542s0.541-0.243,0.541-0.542
			c0-0.126-0.01-0.243-0.016-0.362c0.268,0.163,0.558,0.275,0.849,0.275c0.104,0,0.21-0.015,0.315-0.048
			c0.93-0.282,0.998-1.644,1.021-2.092C22.463,22.488,22.233,22.234,21.935,22.22z"/>
		<path d="M29.092,21.247c-0.736-0.097-1.221-1.115-1.352-1.519l-0.008-1.84c-0.002-0.299-0.244-0.539-0.541-0.539
			c-0.001,0-0.002,0-0.002,0c-0.299,0.001-0.541,0.245-0.539,0.543l0.027,6.222c0.002,0.299,0.244,0.539,0.541,0.539h0.002
			c0.299-0.001,0.541-0.245,0.538-0.544l-0.011-2.379c0.317,0.294,0.715,0.526,1.203,0.591c0.023,0.003,0.048,0.004,0.07,0.004
			c0.268,0,0.501-0.198,0.537-0.472C29.6,21.558,29.39,21.286,29.092,21.247z"/>
	</g>
</g>
</svg>
