<?xml version="1.0" encoding="utf-8"?>
<!-- Generator: Adobe Illustrator 18.1.1, SVG Export Plug-In . SVG Version: 6.00 Build 0)  -->
<svg version="1.1" id="Layer_1" xmlns="http://www.w3.org/2000/svg" xmlns:xlink="http://www.w3.org/1999/xlink" x="0px" y="0px"
	 viewBox="-255 347 100 100" enable-background="new -255 347 100 100" xml:space="preserve">
<g id="Captions">
</g>
<g id="Your_Icon">
	<g>
		<path fill="#FFFFFF" d="M-240.8,409.8v19.3c0,2.5,2.1,4.6,4.6,4.6c2.5,0,4.6-2,4.6-4.6v-19.3H-240.8z"/>
		<circle fill="#FFFFFF" cx="-234.5" cy="404.9" r="2.9"/>
		<circle fill="#FFFFFF" cx="-239.1" cy="394.6" r="1.7"/>
		<path fill="#FFFFFF" d="M-225.4,365.9l-3,3.3V401v28.2c0,0-0.1,7.6-7.7,7.6c-7.6,0-7.7-7.6-7.7-7.6V401v-31.8l-3.1-3.3H-225.4
			 M-225.7,362.9h-21.2c-1.2,0-2.3,0.7-2.8,1.8c-0.5,1.1-0.3,2.4,0.6,3.3l2.2,2.4V401v28.2c0,4.3,2.9,10.7,10.8,10.7
			c7.8,0,10.8-6.4,10.8-10.7V401v-30.6l2.1-2.4c0.8-0.9,1-2.2,0.5-3.3C-223.3,363.6-224.5,362.9-225.7,362.9L-225.7,362.9z"/>
	</g>
</g>
<g id="Your_Icon_1_">
	<g>
		<path fill="#FFFFFF" d="M-169.6,386.1c6.2-6.8,9.6-13.3,11.5-18.9c0,0,0,0,0,0c0,0,0.8-2,1.4-5.1c0-0.2,0.1-0.4,0.1-0.6
			c0-0.3,0.1-0.5,0.1-0.8c0.7-4.6,0.5-8.2,0.2-10.3c0.1-0.1,0.2-0.2,0.3-0.4c0.4-0.5,0.5-1,0.4-1.1l-0.2-0.2l0.4-1.7l-1.9,0.6
			l-0.2-0.2c-0.2-0.1-0.6,0.2-1,0.6c-0.1,0.1-0.1,0.2-0.2,0.3c0,0-6.8,0.2-14.6,5.2h0c-11,6.8-16.2,17.4-16.2,17.4
			c-19.8-2.7-24.2,15.8-24.2,15.8c38.6-2.3,33.5,26.9,33.5,26.9C-163.3,406.2-169.6,386.1-169.6,386.1z M-170.9,376
			c-1.7,1.9-4.7,2.4-7.1,1.1c-2.7-1.6-3.7-5-2.1-7.7c0.2-0.3,0.4-0.6,0.7-0.9c1.7-1.9,4.7-2.4,7.1-1.1c2.7,1.6,3.7,5,2.1,7.7
			C-170.4,375.4-170.6,375.7-170.9,376z"/>
		<path fill="#FFFFFF" d="M-198.4,416c9.5-3.5,13-16,13-16C-195.5,404.5-198.4,416-198.4,416z"/>
		<path fill="#FFFFFF" d="M-208.5,417c12.6-4.7,17.1-21.8,17.1-21.8C-204.8,401.4-208.5,417-208.5,417z"/>
		<path fill="#FFFFFF" d="M-210.3,406.6c9.5-3.5,13-16,13-16C-207.4,395.1-210.3,406.6-210.3,406.6z"/>
	</g>
</g>
</svg>
