<?xml version="1.0" encoding="utf-8"?>
<!-- Generator: Adobe Illustrator 18.1.1, SVG Export Plug-In . SVG Version: 6.00 Build 0)  -->
<svg version="1.1" id="Layer_1" xmlns="http://www.w3.org/2000/svg" xmlns:xlink="http://www.w3.org/1999/xlink" x="0px" y="0px"
	 viewBox="-255 347 100 100" enable-background="new -255 347 100 100" xml:space="preserve">
<g id="Captions">
</g>
<g id="Your_Icon">
	<g>
		<path d="M-211,408v25.1c0,3.3,2.7,5.9,6,5.9c3.3,0,6-2.7,6-5.9V408H-211z"/>
		<circle cx="-202.8" cy="401.6" r="3.7"/>
		<circle cx="-208.8" cy="388.2" r="2.2"/>
		<path d="M-191.1,351l-3.9,4.2v41.3v36.6c0,0-0.1,9.9-10,9.9s-10-9.9-10-9.9v-36.6v-41.3l-4-4.2H-191.1 M-191.4,347H-219
			c-1.6,0-3,0.9-3.7,2.4s-0.3,3.2,0.8,4.3l2.9,3.1v39.7v36.6c0,5.6,3.8,13.9,14,13.9s14-8.3,14-13.9v-36.6v-39.7l2.7-3.1
			c1.1-1.2,1.3-2.9,0.6-4.3C-188.3,347.9-189.8,347-191.4,347L-191.4,347z"/>
	</g>
</g>
</svg>
